<?xml version="1.0" encoding="iso-8859-1"?>
<!-- Generator: Adobe Illustrator 19.0.0, SVG Export Plug-In . SVG Version: 6.00 Build 0)  -->
<svg version="1.1" id="logo" xmlns="http://www.w3.org/2000/svg" xmlns:xlink="http://www.w3.org/1999/xlink" x="0px" y="0px"
	 viewBox="0 0 512.001 512.001" style="enable-background:new 0 0 512.001 512.001;" xml:space="preserve">
<path style="fill:#85E374;" d="M445.84,51.233c35.145,35.155,35.145,92.142,0,127.297c-4.221,4.221-8.751,7.941-13.532,11.141
	l-0.72,0.48c-1.02-0.94-8.911-8.401-14.442-19.203c-3.1-6.031-5.451-13.122-5.451-20.703c0-6.141,0.69-11.962,1.92-17.162
	c-23.793,8.681-52.647,3.02-52.647,3.02s-5.661-28.854,3.02-52.647c-5.201,1.23-11.021,1.92-17.162,1.92
	c-7.581,0-14.672-2.35-20.703-5.451c-10.821-5.531-18.292-13.452-19.203-14.442c0.16-0.24,0.32-0.48,0.48-0.72
	c3.2-4.781,6.921-9.311,11.141-13.532C353.698,16.089,410.686,16.089,445.84,51.233z"/>
<path style="fill:#CA80DC;" d="M417.146,170.949h-0.01c-30.934,45.546-71.279,109.574-93.212,160.151
	c-19.253,44.396-45.856,85.921-69.889,109.954c-58.588,58.588-150.41,61.748-205.087,7.071s-51.517-146.499,7.071-205.087
	c24.033-24.033,65.559-50.637,109.954-69.889c50.577-21.933,114.605-62.278,160.151-93.212v-0.01
	c6.031,3.1,13.122,5.451,20.703,5.451c6.141,0,11.962-0.69,17.162-1.92c-8.681,23.793-3.02,52.647-3.02,52.647
	s28.854,5.661,52.647-3.02c-1.23,5.201-1.92,11.021-1.92,17.162C411.696,157.826,414.046,164.918,417.146,170.949z"/>
<path d="M306.972,260.111c-5.521,0-10.001,4.481-10.001,10.001c0,5.521,4.481,10.001,10.001,10.001s10.001-4.481,10.001-10.001
	C316.973,264.591,312.493,260.111,306.972,260.111z"/>
<path d="M294.982,297.617c-5.048-2.244-10.958,0.029-13.201,5.077c-1.251,2.814-2.491,5.65-3.737,8.515
	c-16.331,37.672-39.636,74.761-59.372,94.487c-3.907,3.905-3.908,10.237-0.003,14.144c3.902,3.906,10.235,3.91,14.144,0.003
	c21.373-21.364,46.331-60.883,63.579-100.668c1.219-2.805,2.438-5.591,3.667-8.356C302.302,305.772,300.029,299.861,294.982,297.617
	z"/>
<path d="M454.92,28.008l-9.434,9.433C406.239,5.323,348.081,7.561,311.473,44.16c-4.398,4.397-8.35,9.179-11.796,14.212
	c-0.164,0.174-0.255,0.275-0.255,0.275c-3.449,3.826-3.553,9.834,0.303,13.784c1.042,1.118,3.973,4.129,8.333,7.607
	c-37.732,25.155-97.436,62.848-146.063,83.935c-45.391,19.684-87.651,46.597-113.047,71.992
	c-62.391,62.391-65.564,160.738-7.071,219.231c59.078,59.078,157.466,54.694,219.232-7.071
	c25.396-25.396,52.309-67.657,71.992-113.047c21.09-48.632,58.784-108.337,83.938-146.067c2.281,2.861,4.933,5.833,7.779,8.492
	c3.875,3.572,9.747,3.768,13.88-0.105c5.032-3.445,9.816-7.399,14.216-11.799c36.597-36.608,38.835-94.766,6.718-134.014
	l9.434-9.434c7.13-7.131,18.731-7.131,25.86,0c3.907,3.905,10.237,3.905,14.145,0c3.906-3.906,3.906-10.238,0-14.145
	C494.139,13.079,469.848,13.08,454.92,28.008z M314.748,327.12c-18.455,42.558-44.429,83.505-67.785,106.862
	c-54.591,54.591-140.247,57.766-190.943,7.071C5.326,390.359,8.498,304.702,63.091,250.11
	c23.356-23.356,64.302-49.33,106.861-67.786c53.609-23.247,119.696-65.711,157.154-90.976c6.618,2.665,13.229,4.031,19.721,4.031
	c1.287,0,2.565-0.026,3.835-0.08c-3.563,21.494,0.289,41.687,0.494,42.731c0.782,3.989,3.899,7.106,7.889,7.889
	c1.041,0.204,21.24,4.057,42.73,0.493c-0.327,7.862,0.434,14.824,3.952,23.557C380.46,207.426,337.998,273.507,314.748,327.12z
	 M438.767,171.457c-1.881,1.882-3.847,3.662-5.878,5.332c-2.223-2.758-4.75-6.314-6.848-10.413c-4.1-7.971-6.071-16.7-2.692-30.99
	c0.847-3.579-0.34-7.334-3.088-9.777c-2.751-2.444-6.62-3.18-10.072-1.919c-14.272,5.207-31.112,4.514-40.355,3.551
	c-0.962-9.247-1.653-26.086,3.552-40.355c1.26-3.455,0.522-7.323-1.92-10.072c-2.443-2.748-6.198-3.933-9.777-3.088
	c-16.342,3.866-28.022,1.259-41.407-9.535c1.671-2.034,3.452-4.002,5.335-5.884c31.194-31.187,81.957-31.189,113.152-0.001
	C469.955,89.5,469.955,140.261,438.767,171.457z"/>
<g>
</g>
<g>
</g>
<g>
</g>
<g>
</g>
<g>
</g>
<g>
</g>
<g>
</g>
<g>
</g>
<g>
</g>
<g>
</g>
<g>
</g>
<g>
</g>
<g>
</g>
<g>
</g>
<g>
</g>
</svg>
